<svg width="182" height="28" viewBox="0 0 182 28" fill="none" xmlns="http://www.w3.org/2000/svg">
<g clip-path="url(#clip0_1_4841)">
<path d="M14.0921 12.8753V22.37H10.0774V14.1692C10.0774 12.0141 8.9977 10.8272 7.16817 10.8272C5.44575 10.8272 4.01469 11.9498 4.01469 14.1949V22.3657H0V7.46379H3.90757V9.2162C4.97016 7.63089 6.6026 7.06104 8.29503 7.06104C11.6799 7.06104 14.0964 9.41758 14.0964 12.8753H14.0921Z" fill="black"/>
<path d="M32.0445 14.8933C32.0445 15.3561 32.0103 15.9088 31.9717 16.2473H21.4015C21.8343 18.4024 23.3425 19.3408 25.2363 19.3408C26.5302 19.3408 27.9313 18.818 29.0024 17.9097L31.3547 20.4976C29.6623 22.0529 27.5071 22.7599 25.0006 22.7599C20.4332 22.7599 17.2583 19.6535 17.2583 14.9576C17.2583 10.2617 20.3347 7.06104 24.7992 7.06104C29.0967 7.05675 32.0317 10.2445 32.0488 14.889L32.0445 14.8933ZM21.4144 13.5094H28.017C27.6485 11.6027 26.4959 10.523 24.7692 10.523C22.8754 10.523 21.77 11.6627 21.4144 13.5094Z" fill="black"/>
<path d="M50.5244 14.9105C50.5244 19.405 47.0967 22.7599 42.4479 22.7599C37.7991 22.7599 34.4014 19.405 34.4014 14.9105C34.4014 10.4159 37.8162 7.06104 42.4479 7.06104C47.0796 7.06104 50.5244 10.4159 50.5244 14.9105ZM38.4932 14.9105C38.4932 17.327 40.1856 19.0194 42.4479 19.0194C44.7102 19.0194 46.4154 17.327 46.4154 14.9105C46.4154 12.4939 44.7102 10.8015 42.4479 10.8015C40.1856 10.8015 38.4932 12.4939 38.4932 14.9105Z" fill="black"/>
<path d="M64.3849 11.6154C63.198 11.0284 61.3085 10.4157 59.6289 10.4028C58.1079 10.4028 57.3367 10.9427 57.3367 11.7568C57.3367 12.618 58.4164 12.8365 59.7703 13.0379L61.09 13.2393C64.3249 13.732 66.1202 15.1802 66.1202 17.6995C66.1202 20.7759 63.5965 22.7597 59.2733 22.7597C57.2424 22.7597 54.5774 22.3741 52.645 21.0073L54.2303 17.9609C55.5114 18.8093 57.0625 19.422 59.3076 19.422C61.1671 19.422 62.0626 18.8992 62.0626 18.0209C62.0626 17.3011 61.3085 16.8983 59.5861 16.6541L58.3736 16.487C54.9244 16.0071 53.2192 14.4989 53.2192 11.9667C53.2192 8.90322 55.5886 7.09082 59.5133 7.09082C61.8998 7.09082 63.7593 7.53642 65.7431 8.50475L64.3849 11.6197V11.6154Z" fill="black"/>
<path d="M83.9227 22.3743H80.0023V20.729C79.0339 21.9287 77.5857 22.7599 75.542 22.7599C71.433 22.7599 68.3267 19.3922 68.3267 14.9105C68.3267 10.4287 71.433 7.06104 75.542 7.06104C77.59 7.06104 79.0168 7.89225 80.0023 9.10908V7.46379H83.9227V22.3743ZM72.427 14.9105C72.427 17.1856 73.9224 19.0194 76.2746 19.0194C78.6269 19.0194 80.1222 17.267 80.1222 14.9105C80.1222 12.5539 78.5669 10.8015 76.2746 10.8015C73.9824 10.8015 72.427 12.6353 72.427 14.9105Z" fill="black"/>
<path d="M103.739 14.9105C103.739 19.3879 100.633 22.7599 96.5241 22.7599C94.5231 22.7599 93.1092 21.9758 92.1366 20.819V28H88.1348V7.46379H92.0552V9.10908C93.0235 7.89654 94.4546 7.06104 96.5026 7.06104C100.624 7.06104 103.735 10.4287 103.735 14.9105H103.739ZM91.9352 14.9105C91.9352 17.2627 93.4905 19.0194 95.77 19.0194C98.0494 19.0194 99.6176 17.1856 99.6176 14.9105C99.6176 12.6353 98.1436 10.8015 95.77 10.8015C93.3963 10.8015 91.9352 12.5539 91.9352 14.9105Z" fill="black"/>
<path d="M111.563 2.58791C111.563 4.03611 110.44 5.14155 108.997 5.14155C107.553 5.14155 106.443 4.03611 106.443 2.58791C106.443 1.13971 107.548 0 108.997 0C110.445 0 111.563 1.13971 111.563 2.58791ZM111.027 22.3743H107.013V7.46381H111.027V22.3743Z" fill="black"/>
<path d="M129.104 14.8933C129.104 15.3561 129.07 15.9088 129.031 16.2473H118.461C118.894 18.4024 120.402 19.3408 122.296 19.3408C123.59 19.3408 124.991 18.818 126.062 17.9097L128.414 20.4976C126.722 22.0529 124.567 22.7599 122.06 22.7599C117.493 22.7599 114.318 19.6535 114.318 14.9576C114.318 10.2617 117.394 7.06104 121.859 7.06104C126.152 7.05675 129.087 10.2445 129.108 14.889L129.104 14.8933ZM118.474 13.5094H125.077C124.708 11.6027 123.556 10.523 121.829 10.523C119.931 10.523 118.825 11.6627 118.474 13.5094Z" fill="black"/>
<path d="M146.47 12.8753V22.37H142.455V14.1692C142.455 12.0141 141.375 10.8272 139.546 10.8272C137.823 10.8272 136.392 11.9498 136.392 14.1949V22.3657H132.377V7.46379H136.285V9.2162C137.348 7.63089 138.98 7.06104 140.672 7.06104C144.062 7.06104 146.474 9.41758 146.474 12.8753H146.47Z" fill="black"/>
<path d="M181.239 14.8933C181.239 15.3561 181.205 15.9088 181.167 16.2473H170.596C171.029 18.4024 172.537 19.3408 174.431 19.3408C175.725 19.3408 177.126 18.818 178.197 17.9097L180.55 20.4976C178.857 22.0529 176.702 22.7599 174.195 22.7599C169.628 22.7599 166.453 19.6535 166.453 14.9576C166.453 10.2617 169.529 7.06104 173.994 7.06104C178.287 7.05675 181.222 10.2445 181.244 14.889L181.239 14.8933ZM170.609 13.5094H177.212C176.843 11.6027 175.691 10.523 173.964 10.523C172.066 10.523 170.961 11.6627 170.609 13.5094Z" fill="black"/>
<path d="M160.746 13.651C160.798 13.9167 160.828 14.1952 160.828 14.4737C160.828 16.7959 158.942 18.6812 156.62 18.6812C154.298 18.6812 152.413 16.7959 152.413 14.4737C152.413 12.1514 154.298 10.2662 156.62 10.2662C157.053 10.2662 157.468 10.3305 157.858 10.4547L158.917 7.01416C158.188 6.79136 157.421 6.67139 156.62 6.67139C152.31 6.67139 148.813 10.1676 148.813 14.478C148.813 18.7883 152.31 22.2803 156.62 22.2803C160.93 22.2803 164.427 18.784 164.427 14.4737C164.427 13.951 164.375 13.4368 164.277 12.9398L160.75 13.6468L160.746 13.651Z" fill="#FF7700"/>
</g>
<defs>
<clipPath id="clip0_1_4841">
<rect width="181.239" height="28" fill="white"/>
</clipPath>
</defs>
</svg>
